<?xml version="1.0" standalone="no"?>
<!DOCTYPE svg PUBLIC "-//W3C//DTD SVG 20010904//EN"
 "http://www.w3.org/TR/2001/REC-SVG-20010904/DTD/svg10.dtd">
<svg version="1.0" xmlns="http://www.w3.org/2000/svg"
 width="1092.000000pt" height="1101.000000pt" viewBox="0 0 1092.000000 1101.000000"
 preserveAspectRatio="xMidYMid meet">

<g transform="translate(0.000000,1101.000000) scale(0.100000,-0.100000)"
fill="#000000" stroke="none">
<path d="M4450 10233 c-553 -427 -1774 -1370 -2715 -2095 -941 -726 -1714
-1325 -1718 -1331 -6 -8 225 -775 597 -1987 333 -1086 801 -2612 1039 -3390
l434 -1415 3378 0 3378 0 434 1415 c238 778 706 2304 1039 3390 372 1212 603
1979 597 1987 -4 6 -199 159 -433 339 -234 180 -1456 1123 -2717 2096 -1261
972 -2296 1768 -2300 1767 -4 0 -460 -350 -1013 -776z m3253 -1205 c1228 -947
2398 -1850 2600 -2006 203 -157 371 -290 373 -297 3 -7 -166 -572 -376 -1256
-307 -1001 -1585 -5173 -1606 -5241 -5 -17 -168 -18 -3229 -18 -3061 0 -3224
1 -3229 18 -21 68 -1299 4240 -1606 5241 -210 684 -379 1249 -376 1256 2 7
910 711 2018 1566 1107 854 2276 1757 2598 2005 322 249 589 453 593 453 4 1
1012 -774 2240 -1721z"/>
<path d="M2940 8628 c-1383 -1067 -2514 -1943 -2514 -1947 1 -3 263 -859 582
-1901 320 -1042 739 -2412 932 -3045 193 -632 364 -1194 381 -1247 l30 -98
3114 0 3114 0 30 98 c17 53 188 615 381 1247 193 633 612 2003 932 3045 319
1042 581 1898 582 1901 1 8 -5031 3889 -5041 3888 -5 0 -1140 -874 -2523
-1941z m4953 -84 c1332 -1027 2432 -1876 2444 -1888 l22 -21 -385 -1255 c-495
-1611 -1484 -4848 -1484 -4855 0 -3 -1361 -5 -3025 -5 -1664 0 -3025 2 -3025
5 0 7 -984 3227 -1484 4855 -313 1020 -383 1257 -372 1268 24 24 4871 3761
4879 3761 4 1 1098 -839 2430 -1865z"/>
<path d="M6566 8777 c24 -79 64 -176 97 -232 85 -145 148 -211 332 -349 106
-79 130 -109 48 -60 -73 44 -183 78 -183 57 0 -15 77 -144 127 -211 58 -78
139 -148 218 -189 128 -66 164 -107 274 -310 39 -72 71 -134 71 -138 0 -18
-22 12 -44 61 -14 31 -53 84 -88 121 -59 62 -297 248 -306 239 -9 -9 39 -171
70 -234 45 -93 147 -193 263 -260 143 -81 167 -102 207 -178 40 -77 102 -240
112 -294 5 -23 -13 5 -51 80 -74 145 -108 195 -206 297 -64 67 -227 196 -227
180 0 -3 11 -45 25 -93 82 -284 167 -420 345 -554 133 -99 180 -168 199 -290
7 -41 14 -88 17 -105 3 -16 -21 22 -53 85 -90 178 -166 275 -308 393 -47 39
-61 47 -63 34 -8 -39 19 -270 42 -358 41 -161 126 -300 271 -443 78 -77 84
-87 108 -161 14 -44 26 -102 28 -130 4 -70 0 -219 -6 -214 -2 3 -23 74 -45
158 -57 220 -126 355 -239 474 l-36 38 -13 -48 c-20 -74 -27 -260 -12 -324 28
-119 81 -205 210 -345 96 -103 115 -158 115 -329 0 -71 -4 -143 -8 -160 -8
-27 -11 -22 -33 61 -29 112 -72 225 -125 322 -43 80 -126 202 -139 202 -7 0
-21 -77 -35 -195 -8 -62 8 -191 31 -264 19 -57 46 -103 137 -234 32 -46 62
-99 66 -118 8 -38 -4 -247 -17 -294 -8 -26 -9 -21 -16 40 -17 164 -68 339
-144 490 l-45 90 -18 -54 c-66 -193 -52 -438 38 -660 52 -127 55 -142 43 -214
-7 -47 -23 -87 -57 -146 -27 -45 -49 -77 -51 -72 -2 5 4 46 12 91 18 95 21
265 5 342 -11 56 -77 208 -90 208 -15 0 -100 -188 -114 -255 -23 -108 -19
-236 11 -377 34 -157 31 -235 -14 -328 -17 -36 -49 -85 -72 -110 l-40 -45 26
70 c47 125 55 168 61 295 4 103 1 143 -17 229 -28 137 -30 141 -62 99 -131
-174 -175 -406 -122 -640 15 -64 15 -73 -1 -121 -18 -55 -65 -125 -111 -167
-24 -22 -26 -22 -19 -5 21 53 55 194 64 272 13 104 14 322 2 341 -6 10 -20 0
-54 -37 -57 -64 -94 -127 -124 -211 l-23 -65 0 45 c-2 91 -10 91 -83 4 -79
-94 -150 -225 -176 -326 -10 -40 -24 -127 -30 -193 -15 -161 -24 -189 -79
-244 -45 -45 -54 -49 -222 -98 -96 -29 -206 -60 -245 -69 -38 -9 -71 -18 -73
-19 -4 -4 57 -178 66 -187 7 -6 337 143 500 226 71 36 74 37 130 26 31 -6 125
-14 208 -17 137 -5 158 -4 225 16 91 28 184 77 266 143 69 55 149 145 138 156
-3 4 -79 7 -168 7 -137 0 -175 -4 -247 -23 -96 -26 -218 -81 -304 -136 -32
-20 -60 -36 -62 -34 -6 7 185 162 222 181 26 13 92 23 257 37 122 11 244 22
270 26 75 10 179 67 251 139 63 63 184 230 174 240 -3 3 -113 -17 -244 -45
-222 -48 -246 -55 -334 -102 -52 -27 -132 -76 -177 -109 -45 -32 -84 -59 -87
-59 -18 0 4 25 94 109 120 111 143 121 355 156 270 46 333 70 425 164 58 60
126 177 161 277 l19 57 -53 -7 c-73 -10 -221 -61 -295 -102 -96 -54 -213 -146
-291 -230 -40 -42 -74 -75 -76 -72 -2 2 46 72 108 155 l112 150 92 18 c343 64
466 181 602 568 l31 87 -28 -6 c-108 -27 -245 -95 -340 -168 -31 -24 -97 -85
-146 -136 -64 -66 -83 -82 -66 -54 111 184 157 235 232 259 197 65 308 167
371 342 37 101 78 343 58 343 -16 0 -127 -78 -190 -134 -111 -97 -192 -199
-267 -339 -24 -45 -44 -77 -44 -72 0 33 64 246 85 282 15 25 65 75 123 122
220 177 296 308 342 589 11 70 23 140 27 156 l5 29 -63 -49 c-206 -161 -281
-268 -379 -537 -23 -64 -46 -119 -50 -122 -10 -6 42 242 76 360 29 102 57 142
167 237 39 33 80 72 92 87 76 91 107 241 85 412 -7 52 -15 100 -19 107 -5 9
-23 -1 -62 -35 -154 -135 -205 -227 -245 -443 -14 -80 -28 -147 -31 -150 -11
-10 6 360 18 383 7 12 42 65 79 117 37 52 77 113 88 135 33 66 61 171 68 254
7 82 -12 277 -27 287 -13 8 -104 -81 -140 -138 -49 -75 -79 -171 -95 -297 -7
-63 -16 -117 -20 -120 -3 -3 -4 73 -2 169 l3 175 48 81 c54 91 73 146 88 252
17 123 -12 258 -79 366 -24 38 -25 39 -39 20 -8 -10 -31 -50 -50 -89 -19 -38
-32 -59 -28 -45 3 14 9 68 12 121 10 169 -29 304 -125 431 l-46 62 -14 -45
c-35 -121 -38 -260 -7 -409 8 -36 12 -66 11 -67 -2 -2 -16 30 -32 69 -32 80
-36 138 -20 318 16 183 -27 314 -142 430 l-65 65 -8 -30 c-17 -72 -6 -216 26
-355 9 -37 -34 44 -56 106 -11 31 -21 94 -24 155 -9 183 -58 293 -184 419
l-75 75 -9 -54 c-10 -52 5 -169 28 -226 8 -17 7 -18 -7 -7 -8 7 -49 91 -89
188 -83 196 -116 244 -236 332 -62 45 -196 127 -271 166 l-31 16 15 -53z m229
-140 c33 -22 87 -68 119 -101 53 -54 67 -78 122 -206 34 -80 60 -147 59 -148
-5 -6 -186 134 -241 185 -83 79 -160 193 -208 311 l-25 63 57 -32 c31 -17 84
-50 117 -72z m524 -467 c17 -31 37 -83 46 -115 16 -62 21 -207 6 -170 -5 11
-34 63 -66 114 -72 120 -95 178 -101 260 l-5 66 45 -49 c25 -27 59 -75 75
-106z m-286 -79 c52 -36 91 -78 147 -156 24 -33 59 -77 79 -98 36 -38 36 -38
7 -27 -47 17 -135 80 -189 134 -43 44 -137 174 -137 190 0 10 51 -13 93 -43z
m548 -213 c55 -86 72 -153 72 -278 0 -58 -5 -116 -11 -130 l-11 -25 0 27 c-1
15 -16 56 -35 90 -44 81 -63 152 -76 273 -14 138 -5 144 61 43z m-166 -143
c10 -27 33 -80 52 -117 18 -38 31 -68 28 -68 -2 0 -14 19 -26 43 -12 23 -43
69 -68 102 -43 55 -82 114 -47 71 14 -18 15 -17 22 9 8 32 15 25 39 -40z
m-150 -130 c99 -76 171 -155 201 -220 14 -31 40 -66 59 -81 33 -25 102 -50
112 -41 2 3 -3 19 -11 35 -11 22 -13 38 -7 54 10 26 15 18 25 -42 4 -19 37
-111 74 -204 l67 -169 18 43 19 43 -31 156 c-31 155 -40 315 -22 381 7 25 7
25 34 -16 58 -86 94 -250 82 -369 -4 -33 -20 -110 -36 -171 -16 -61 -29 -125
-29 -142 0 -17 14 -99 30 -183 17 -84 29 -154 27 -156 -3 -2 -10 11 -18 29
-18 45 -98 129 -189 198 -92 70 -144 126 -192 205 -40 66 -102 210 -113 264
l-7 34 29 -21 c50 -35 163 -161 208 -231 23 -36 68 -118 98 -181 42 -86 69
-128 107 -165 l51 -50 -6 40 c-38 230 -149 506 -230 572 -19 16 -78 53 -132
83 -125 71 -218 160 -260 250 -36 76 -47 110 -37 110 4 0 40 -25 79 -55z m776
-537 c21 -54 24 -80 24 -183 -1 -134 -18 -201 -78 -298 l-32 -52 -3 35 c-1 19
-10 64 -18 98 -20 82 -19 220 1 297 20 73 65 176 75 170 4 -3 18 -33 31 -67z
m-167 -187 c-4 -23 -9 -40 -11 -37 -3 3 -2 23 2 46 4 23 9 39 11 37 3 -2 2
-23 -2 -46z m-159 -392 c64 -108 114 -227 154 -364 18 -60 37 -121 42 -135 15
-40 1 334 -16 425 -18 96 -18 98 -5 90 6 -4 22 0 35 9 24 16 24 15 14 -12 -5
-16 -8 -146 -7 -306 l3 -280 27 41 c36 55 55 125 72 273 20 171 43 238 119
339 50 68 57 58 59 -81 2 -185 -27 -268 -165 -471 l-87 -127 0 -133 c0 -72 -3
-197 -6 -277 l-5 -145 39 72 c22 40 44 79 50 86 6 7 23 78 37 157 15 79 34
163 43 185 23 61 75 134 136 194 l55 54 7 -37 c3 -21 5 -86 2 -144 -4 -90 -9
-117 -32 -167 -32 -71 -39 -79 -135 -162 -131 -112 -174 -191 -212 -391 -6
-34 -13 -61 -14 -60 -2 2 -8 46 -14 98 -16 129 -49 197 -148 306 -90 97 -147
186 -171 264 -17 59 -23 233 -9 283 l8 29 35 -44 c65 -80 131 -231 174 -395
43 -165 55 -196 94 -232 l25 -24 6 25 c4 14 7 101 8 194 2 164 1 172 -28 254
-27 79 -35 91 -126 186 -116 121 -199 243 -233 346 -27 81 -56 238 -56 303 l1
40 87 -91 c51 -53 108 -126 137 -175z m649 -981 c-19 -111 -27 -150 -45 -207
-46 -147 -117 -245 -275 -377 -161 -135 -164 -139 -239 -447 -52 -209 -56
-221 -112 -312 -32 -51 -59 -92 -61 -91 -1 2 2 23 7 47 20 84 13 133 -29 236
-70 168 -84 237 -84 408 1 83 5 164 11 180 l10 30 22 -50 c78 -174 111 -329
118 -558 3 -98 9 -175 14 -170 21 21 81 234 94 331 29 215 21 254 -84 401 -84
118 -107 162 -126 243 -15 63 -19 233 -6 277 6 23 7 23 33 -16 87 -131 161
-330 198 -528 28 -150 30 -156 40 -129 4 11 30 40 56 63 62 55 72 71 134 236
71 190 125 281 227 383 46 45 87 82 93 82 5 0 7 -14 4 -32z m-57 -585 c-3 -10
-8 -40 -12 -68 -8 -61 -50 -196 -77 -248 -26 -53 -89 -119 -148 -157 -51 -33
-210 -95 -210 -82 0 4 24 57 54 118 82 166 197 310 336 418 51 40 63 44 57 19z
m-857 -500 c34 -104 38 -239 10 -388 -23 -126 -28 -241 -12 -257 7 -7 12 -3
16 9 4 11 28 30 55 43 54 25 91 61 193 185 77 94 160 174 241 234 62 46 219
125 236 120 14 -5 -59 -185 -108 -269 -95 -160 -229 -236 -488 -280 l-72 -12
-155 -206 c-85 -114 -154 -208 -153 -209 1 -1 32 4 69 11 66 12 68 14 160 108
157 160 320 258 501 302 34 8 34 1 -4 -79 -63 -135 -153 -227 -259 -264 -19
-7 -118 -28 -220 -46 -102 -19 -207 -41 -233 -49 -56 -18 -58 -24 34 99 79
105 105 161 120 254 9 60 7 83 -21 219 -32 162 -36 229 -19 331 10 66 65 211
79 211 4 0 17 -30 30 -67z m-219 -448 c19 -146 2 -281 -55 -420 -13 -33 -29
-94 -36 -135 -16 -104 -16 -105 -58 -136 -22 -17 -30 -20 -21 -8 29 33 59 102
65 147 4 26 0 73 -10 115 -36 159 -15 342 56 491 36 77 42 72 59 -54z m-260
-415 c-12 -126 -46 -275 -81 -355 l-23 -50 -9 30 c-5 17 -12 78 -15 136 -8
157 29 299 105 399 l27 35 3 -39 c2 -22 -1 -92 -7 -156z m-221 -203 c-14 -99
-50 -208 -106 -319 -44 -88 -52 -120 -34 -148 8 -12 28 3 106 80 53 52 91 84
84 71 l-12 -24 28 20 c16 12 31 21 34 20 3 0 40 3 84 7 76 7 81 9 166 70 158
113 240 149 450 194 102 22 187 38 189 36 7 -7 -69 -101 -126 -155 -68 -65
-135 -102 -213 -117 -30 -6 -152 -19 -270 -28 -180 -14 -223 -20 -265 -39 -51
-24 -335 -253 -332 -269 1 -4 -47 -33 -108 -64 -104 -52 -423 -202 -430 -202
-5 0 -38 101 -34 104 2 2 42 13 89 25 47 12 147 41 224 64 127 38 143 45 191
89 67 61 81 100 101 287 21 202 56 301 153 436 l36 50 3 -55 c2 -30 -2 -90 -8
-133z m63 -171 c7 -20 -30 -80 -83 -131 l-51 -50 30 66 c27 61 59 152 77 224
6 26 8 22 15 -34 5 -34 10 -68 12 -75z m536 -241 c8 -9 -93 -97 -156 -135
-138 -84 -267 -109 -462 -90 -64 6 -134 15 -156 19 -38 8 -37 9 24 10 57 1 72
5 125 41 125 81 282 141 419 160 65 9 195 6 206 -5z"/>
<path d="M4556 8677 c-143 -154 -258 -307 -386 -510 -41 -65 -93 -131 -141
-178 -85 -83 -158 -188 -188 -269 -24 -65 -56 -195 -66 -263 -3 -26 -33 -111
-67 -190 -108 -256 -234 -628 -289 -852 -12 -49 -39 -130 -60 -180 -64 -151
-70 -185 -68 -410 1 -110 -3 -261 -10 -335 -6 -74 -11 -224 -11 -332 0 -146
-4 -212 -15 -255 -9 -32 -18 -105 -22 -163 -6 -121 11 -208 73 -364 21 -50 48
-137 60 -194 58 -254 189 -598 289 -757 45 -73 47 -75 41 -75 -8 0 -199 279
-243 355 -145 251 -260 523 -338 802 l-35 123 17 121 c20 144 12 228 -36 364
l-30 85 24 0 c13 0 37 12 54 26 82 69 -5 198 -100 149 l-32 -17 6 213 c9 314
40 537 118 828 26 100 36 123 78 175 113 142 156 233 181 376 6 36 13 74 15
85 4 17 11 20 49 17 38 -3 49 0 70 22 57 56 20 151 -60 158 l-35 3 104 205
c138 273 275 505 405 683 36 48 63 89 61 91 -2 2 -24 13 -47 25 -42 21 -44 22
-58 4 -34 -42 -214 -317 -277 -423 -75 -127 -246 -460 -305 -597 -21 -48 -54
-109 -74 -134 -94 -123 -136 -237 -162 -434 -8 -60 -33 -180 -55 -265 -81
-312 -131 -735 -116 -992 5 -82 3 -134 -6 -175 -7 -32 -13 -112 -12 -178 0
-130 21 -215 85 -355 17 -36 49 -132 73 -215 129 -445 303 -798 568 -1149 98
-130 265 -308 364 -388 34 -28 63 -55 63 -60 0 -13 -53 17 -165 92 -151 101
-247 181 -386 319 -202 202 -377 437 -505 681 -61 115 -61 115 -73 242 -6 69
-18 153 -27 185 -16 63 -69 181 -114 255 l-29 46 30 12 c30 13 59 55 59 85 0
58 -66 105 -119 87 -28 -10 -29 -9 -35 21 -34 193 -40 592 -11 812 15 120 20
136 59 205 121 211 153 305 168 498 l12 142 29 0 c39 0 87 48 87 88 0 33 -42
92 -66 92 -8 0 -14 4 -14 10 0 38 166 406 271 602 60 112 233 392 295 478 l36
50 -26 10 c-14 5 -37 14 -50 20 -22 8 -28 4 -58 -38 -198 -279 -422 -702 -559
-1054 -27 -69 -57 -132 -66 -140 -62 -51 -175 -261 -195 -364 -6 -33 -11 -141
-10 -244 0 -121 -6 -245 -19 -360 -32 -290 -24 -612 20 -862 15 -86 16 -106 4
-185 -19 -121 -12 -329 14 -404 41 -121 130 -235 226 -289 50 -28 60 -41 138
-171 273 -458 621 -798 1064 -1042 55 -30 196 -114 314 -186 118 -72 215 -130
215 -129 1 2 14 20 29 40 15 20 27 39 27 42 0 3 -26 29 -57 58 -145 134 -258
248 -300 303 -83 111 -210 402 -283 650 -38 130 -38 130 -28 235 21 222 5 311
-96 543 -25 58 -46 108 -46 111 0 3 18 6 40 6 56 0 90 34 90 90 0 60 -36 93
-95 88 l-44 -3 -7 65 c-11 105 3 729 21 900 20 195 60 495 79 591 48 241 52
253 115 356 102 167 123 230 147 449 5 40 7 42 45 48 30 5 44 14 59 39 11 17
20 42 20 54 0 32 -49 83 -82 85 -16 1 -28 4 -28 5 0 1 24 67 54 145 100 263
242 558 375 778 45 73 81 136 81 140 0 14 -83 40 -95 30 -29 -24 -216 -357
-291 -518 -76 -163 -164 -374 -205 -493 -27 -78 -56 -141 -78 -169 -48 -63
-120 -221 -137 -299 -7 -36 -16 -127 -20 -201 -3 -75 -16 -190 -30 -260 -126
-658 -169 -1271 -124 -1815 7 -88 5 -123 -7 -175 -11 -48 -14 -100 -10 -200 4
-120 8 -145 37 -225 18 -49 48 -121 68 -160 19 -38 45 -108 58 -155 19 -71
100 -321 128 -395 14 -36 -52 46 -126 155 -134 201 -248 466 -317 740 -30 120
-35 154 -29 195 21 133 27 233 18 296 -8 54 -43 182 -67 246 -4 9 4 13 26 13
75 0 110 102 55 157 -22 22 -32 25 -76 21 l-50 -5 6 211 c4 116 11 260 17 319
10 98 15 115 54 190 24 45 56 118 71 162 27 77 28 87 27 270 l-1 190 38 -3
c48 -5 88 28 96 79 8 47 -33 99 -77 99 -16 0 -29 2 -29 4 0 16 99 319 135 411
123 318 165 408 224 470 98 105 151 197 186 324 17 60 18 61 52 61 49 0 93 45
93 95 0 28 -7 44 -31 66 l-31 29 115 174 c128 191 261 359 357 450 l63 60 -29
23 c-60 49 -56 50 -148 -50z"/>
<path d="M4965 7809 c-269 -193 -498 -357 -508 -364 -17 -12 -17 -17 12 -116
113 -391 193 -812 238 -1254 22 -217 25 -935 5 -1150 -48 -509 -121 -889 -268
-1396 -3 -13 123 -108 502 -380 279 -199 512 -362 519 -362 10 0 1025 720
1025 728 0 1 -13 47 -29 101 -114 385 -191 786 -238 1249 -25 244 -25 977 0
1220 46 447 124 858 234 1229 20 68 31 121 25 125 -5 3 -234 167 -509 364
-275 196 -504 357 -509 357 -5 0 -229 -158 -499 -351z m574 -724 c91 -324 143
-595 183 -950 16 -145 16 -695 0 -845 -19 -170 -59 -418 -90 -560 l-28 -125
-48 -3 -49 -3 6 29 c3 16 13 121 23 233 28 348 13 950 -34 1329 -4 30 -7 -166
-7 -435 0 -502 -6 -618 -46 -935 -29 -236 -24 -220 -70 -220 -34 0 -39 3 -45
28 -3 15 -12 52 -19 82 -43 178 -99 517 -126 760 -27 248 -26 712 1 945 38
330 134 722 231 940 l22 50 29 -90 c15 -49 46 -153 67 -230z m81 -2617 c18
-112 24 -413 11 -510 -42 -286 -177 -481 -416 -599 -55 -27 -107 -49 -115 -49
-11 0 -29 56 -73 228 -32 125 -58 230 -57 233 0 4 12 10 28 13 44 11 130 75
167 126 82 112 149 313 176 528 l13 102 127 0 127 0 12 -72z"/>
<path d="M8148 3101 c-234 -339 -493 -582 -812 -760 l-58 -32 -22 20 c-11 11
-36 26 -55 34 -33 14 -37 13 -165 -49 -353 -170 -739 -284 -1141 -340 -160
-22 -582 -30 -756 -15 -469 41 -922 166 -1320 366 -120 60 -129 60 -195 10
l-31 -24 -89 51 c-301 171 -565 424 -788 755 -38 57 -71 101 -74 99 -2 -3 1
-89 7 -193 6 -104 11 -210 11 -237 l0 -48 -201 7 -201 7 28 -48 c225 -392 414
-646 678 -910 217 -216 440 -390 703 -548 35 -20 69 -47 78 -58 18 -27 19 -24
44 105 11 54 21 101 24 104 3 2 65 -16 139 -42 348 -121 703 -198 1093 -236
187 -19 644 -16 835 5 349 37 684 110 1003 217 99 33 180 59 181 57 2 -2 11
-46 21 -98 26 -142 23 -137 49 -108 11 14 44 38 71 53 82 46 307 200 402 276
306 242 549 509 780 854 74 111 223 359 223 372 0 3 -90 2 -200 -2 -167 -6
-200 -5 -200 6 1 8 7 118 14 244 8 127 13 231 13 231 -1 1 -41 -55 -89 -125z
m-1525 -1371 c43 -149 76 -274 73 -279 -10 -15 -117 -35 -125 -23 -3 6 -17 52
-31 101 -13 50 -29 91 -35 91 -5 0 -27 -5 -48 -11 -42 -11 -42 -1 -3 -134 13
-44 21 -83 17 -87 -10 -10 -114 -38 -120 -32 -3 3 -40 126 -82 272 l-76 267
51 17 c81 27 79 28 106 -73 14 -50 30 -94 37 -96 13 -5 83 15 83 23 0 3 -12
46 -26 95 -14 50 -23 94 -19 97 5 6 94 37 115 41 3 1 41 -121 83 -269z m-2046
208 c48 -22 79 -66 89 -125 5 -36 4 -41 -17 -46 -13 -4 -40 -7 -59 -7 -29 0
-37 5 -50 32 -18 37 -51 52 -76 34 -26 -19 -12 -40 60 -92 92 -66 113 -122 80
-217 -30 -88 -123 -145 -209 -128 -104 20 -165 91 -165 191 0 39 1 40 34 40
62 0 96 -11 96 -32 0 -10 11 -30 25 -44 32 -32 78 -30 83 3 2 16 -10 31 -51
61 -86 64 -107 95 -107 155 1 122 92 216 195 199 17 -2 49 -13 72 -24z m339
-79 c78 -16 160 -29 182 -29 23 0 44 -4 47 -10 3 -5 -2 -100 -11 -210 -10
-110 -15 -203 -11 -206 4 -4 30 -9 59 -11 105 -8 101 -5 95 -79 -2 -36 -7 -67
-9 -69 -6 -6 -286 20 -294 27 -3 4 2 103 13 220 l18 214 -94 17 c-51 10 -96
16 -98 14 -2 -3 -6 -20 -9 -39 l-6 -35 77 -13 c70 -12 76 -15 71 -34 -3 -12
-8 -40 -12 -63 -7 -48 -5 -47 -94 -28 -36 7 -66 12 -68 10 -2 -2 -6 -21 -9
-43 l-5 -40 51 -11 c28 -6 69 -14 91 -17 30 -5 40 -11 40 -25 0 -30 -21 -119
-28 -119 -19 0 -304 58 -308 63 -5 4 89 511 101 544 5 14 2 14 211 -28z m1282
-252 c62 -144 112 -265 112 -268 0 -4 -17 -10 -37 -13 -21 -4 -50 -9 -66 -12
-25 -5 -29 -2 -49 46 l-22 52 -50 -7 c-27 -3 -53 -8 -58 -11 -4 -3 -8 -29 -8
-58 l0 -53 -52 -11 c-29 -5 -54 -9 -56 -8 -1 2 4 120 13 262 8 142 15 273 15
290 0 30 3 32 53 41 28 6 61 11 72 12 17 1 37 -40 133 -262z m-738 115 c0 -49
-3 -177 -7 -286 l-6 -197 -66 3 c-45 2 -66 7 -65 16 1 6 2 134 3 282 l1 270
70 0 70 0 0 -88z m283 74 c155 -64 195 -388 62 -505 -43 -37 -79 -48 -192 -55
-80 -6 -93 -5 -93 9 0 26 -29 436 -35 497 l-6 57 43 4 c102 9 190 6 221 -7z"/>
<path d="M6030 1602 c0 -69 1 -72 23 -72 13 0 26 3 29 6 5 5 -37 122 -48 133
-2 2 -4 -28 -4 -67z"/>
<path d="M5634 1563 c10 -180 13 -191 41 -185 35 6 54 32 64 88 10 54 1 126
-23 173 -16 30 -34 41 -68 41 -20 0 -20 -4 -14 -117z"/>
</g>
</svg>
